<svg width="79" height="74" viewBox="0 0 79 74" fill="none" xmlns="http://www.w3.org/2000/svg">
<path d="M76.2385 33.1068C74.2426 29.187 69.4445 27.629 65.5247 29.6238C65.2157 29.7806 64.9229 29.9584 64.6418 30.1466L43.6196 44.6861H69.1436C70.3576 44.6861 71.6007 44.4096 72.7567 43.8205C76.6753 41.82 78.2356 37.0265 76.2385 33.1068Z" fill="#0CB14B"/>
<path d="M76.2385 33.1068C74.2426 29.187 69.4445 27.629 65.5247 29.6238C65.2157 29.7806 64.9229 29.9584 64.6418 30.1466L43.6196 44.6861H69.1436C70.3576 44.6861 71.6007 44.4096 72.7567 43.8205C76.6753 41.82 78.2356 37.0265 76.2385 33.1068Z" stroke="white" stroke-width="2.298" stroke-miterlimit="3.864"/>
<path d="M55.8227 16.5924L44.8022 41.9421L67.5171 26.2269C68.0062 25.8876 68.4651 25.4833 68.8821 25.0256C71.7924 21.7936 71.5298 16.8166 68.2989 13.9087C65.0704 10.9961 60.0911 11.2599 57.182 14.4907C56.6046 15.1343 56.1538 15.8442 55.8227 16.5924Z" fill="#0089D0"/>
<path d="M55.8227 16.5924L44.8022 41.9421L67.5171 26.2269C68.0062 25.8876 68.4651 25.4833 68.8821 25.0256C71.7924 21.7936 71.5298 16.8166 68.2989 13.9087C65.0704 10.9961 60.0911 11.2599 57.182 14.4907C56.6046 15.1343 56.1538 15.8442 55.8227 16.5924Z" stroke="white" stroke-width="2.298" stroke-miterlimit="3.864"/>
<path d="M55.7693 12.855C56.0702 12.1463 56.2724 11.3831 56.356 10.578C56.8173 6.20276 53.6398 2.28296 49.2658 1.8229C44.8906 1.36401 40.9708 4.53911 40.5119 8.91432C40.4666 9.35114 40.4538 9.7868 40.4805 10.2167H40.4724C40.4724 10.3491 40.5305 10.4107 40.6792 10.4107C40.8256 10.4107 42.5938 10.4107 42.7948 10.4107C43.2269 10.4107 43.8729 10.5385 43.8729 10.8789C43.8729 11.1391 42.7239 11.3831 42.0152 12.065C41.2682 12.7818 40.929 14.0633 41.1079 15.2959V15.2889L44.6466 39.1237L55.7693 12.855Z" fill="#645FAA"/>
<path d="M55.7693 12.855C56.0702 12.1463 56.2724 11.3831 56.356 10.578C56.8173 6.20276 53.6398 2.28296 49.2658 1.8229C44.8906 1.36401 40.9708 4.53911 40.5119 8.91432C40.4666 9.35114 40.4538 9.7868 40.4805 10.2167H40.4724C40.4724 10.3491 40.5305 10.4107 40.6792 10.4107C40.8256 10.4107 42.5938 10.4107 42.7948 10.4107C43.2269 10.4107 43.8729 10.5385 43.8729 10.8789C43.8729 11.1391 42.7239 11.3831 42.0152 12.065C41.2682 12.7818 40.929 14.0633 41.1079 15.2959V15.2889L44.6466 39.1237L55.7693 12.855Z" stroke="white" stroke-width="2.298" stroke-miterlimit="3.864"/>
<path d="M10.2583 44.6861H35.7788L14.7544 30.1466C14.4767 29.9584 14.1816 29.7806 13.8749 29.6238C9.95279 27.629 5.1547 29.187 3.16111 33.1068C1.16288 37.0265 2.72313 41.82 6.64176 43.8205C7.79888 44.4096 9.04313 44.6861 10.2583 44.6861Z" fill="#FDB913"/>
<path d="M10.2583 44.6861H35.7788L14.7544 30.1466C14.4767 29.9584 14.1816 29.7806 13.8749 29.6238C9.95279 27.629 5.1547 29.187 3.16111 33.1068C1.16288 37.0265 2.72313 41.82 6.64176 43.8205C7.79888 44.4096 9.04313 44.6861 10.2583 44.6861Z" stroke="white" stroke-width="2.298" stroke-miterlimit="3.864"/>
<path d="M23.5757 16.5923L34.595 41.9408L11.8813 26.2256C11.3922 25.8864 10.9333 25.4821 10.5186 25.0244C7.60836 21.7924 7.86976 16.8154 11.0995 13.9075C14.3315 10.9949 19.3062 11.2586 22.2176 14.4895C22.795 15.1343 23.2492 15.8441 23.5757 16.5923Z" fill="#F37021"/>
<path d="M23.5757 16.5923L34.595 41.9408L11.8813 26.2256C11.3922 25.8864 10.9333 25.4821 10.5186 25.0244C7.60836 21.7924 7.86976 16.8154 11.0995 13.9075C14.3315 10.9949 19.3062 11.2586 22.2176 14.4895C22.795 15.1343 23.2492 15.8441 23.5757 16.5923Z" stroke="white" stroke-width="2.298" stroke-miterlimit="3.864"/>
<path d="M38.9179 10.2167L34.7495 39.1237L23.6279 12.855C23.3282 12.1463 23.1284 11.3831 23.0436 10.578C22.5835 6.20276 25.7598 2.28296 30.1326 1.8229C34.5079 1.36401 38.4288 4.53911 38.8854 8.91432C38.933 9.35114 38.9423 9.7868 38.9179 10.2167Z" fill="#C8234A"/>
<path d="M38.9179 10.2167L34.7495 39.1237L23.6279 12.855C23.3282 12.1463 23.1284 11.3831 23.0436 10.578C22.5835 6.20276 25.7598 2.28296 30.1326 1.8229C34.5079 1.36401 38.4288 4.53911 38.8854 8.91432C38.933 9.35114 38.9423 9.7868 38.9179 10.2167Z" stroke="white" stroke-width="2.298" stroke-miterlimit="3.864"/>
<path d="M15.3737 51.8785C15.0972 50.539 13.9981 50.187 12.7725 50.072C8.80621 49.7048 8.10102 52.6662 8.10102 53.9186C8.10102 56.0562 8.72721 57.8105 12.6226 57.8105C13.3383 57.8105 15.3214 57.089 15.3214 55.8901H20.9211C20.698 59.4462 14.7068 60.3001 12.0952 60.3001C6.6825 60.3001 2.05055 59.294 2.27361 53.9697C2.43741 50.1661 6.03191 47.4963 13.1861 47.6613C17.1709 47.7577 21.0001 48.995 21.0164 51.8797H15.3737" fill="#231F20"/>
<path d="M71.4601 51.8785C71.1848 50.539 70.0869 50.187 68.8601 50.072C64.895 49.7048 64.1909 52.6662 64.1909 53.9186C64.1909 56.0562 64.8148 57.8105 68.7102 57.8105C69.427 57.8105 71.4101 57.089 71.4101 55.8901H77.0075C76.7856 59.4462 70.7956 60.3001 68.1839 60.3001C62.7724 60.3001 58.1393 59.294 58.3635 53.9697C58.5227 50.1661 62.1172 47.4963 69.2702 47.6613C73.2573 47.7577 77.0865 48.995 77.1063 51.8797H71.4601" fill="#231F20"/>
<path d="M22.0154 47.917H29.2845L35.4884 56.6082H35.5383V47.917H40.197V59.9819H33.2334L26.7275 51.2942H26.6775V59.9819H22.0154V47.917Z" fill="#231F20"/>
<path d="M46.7494 57.4528H48.2121C50.9294 57.4528 51.9285 57.1681 51.9285 56.2341C51.9285 55.2291 50.6657 54.8922 48.6384 54.8922H46.7494V57.4528ZM46.7494 52.6047H48.2121C50.4647 52.6047 51.6637 52.4281 51.6637 51.4941C51.6637 50.4891 50.6657 50.1569 48.6384 50.1569H46.7494V52.6047ZM41.6365 47.917H50.4636C54.711 47.917 57.2053 49.102 57.2053 50.8934C57.2053 51.946 56.1597 53.2518 53.8315 53.6352V53.6712C56.6372 53.8373 57.6723 55.609 57.6723 56.6709C57.6723 58.7981 55.2373 59.9819 50.4891 59.9819H41.6365V47.917Z" fill="#231F20"/>
<path d="M7.38188 68.6313H11.0891L9.28601 64.9695H9.24535L7.38188 68.6313ZM7.68278 62.5193H10.9078L16.2601 72.4744H12.9932L11.9128 70.2601H6.56051L5.43825 72.4744H2.25037L7.68278 62.5193Z" fill="#231F20"/>
<path d="M17.5032 62.5193H27.5571V64.3607H20.6446V66.661H26.6358V68.3583H20.6446V72.4744H17.5032V62.5193Z" fill="#231F20"/>
<path d="M32.5283 67.0327H35.9845C36.7071 67.0327 37.2508 66.9224 37.6145 66.6947C37.9746 66.4716 38.1558 66.108 38.1558 65.6026C38.1558 65.1182 37.9746 64.7638 37.6145 64.5466C37.2508 64.3282 36.7071 64.2178 35.9845 64.2178H32.5283V67.0327ZM29.3868 62.5193H37.1056C37.7504 62.5193 38.3243 62.5925 38.8424 62.7342C39.3594 62.8771 39.7963 63.0758 40.1645 63.329C40.5305 63.58 40.8128 63.8727 41.0056 64.2085C41.2008 64.5431 41.2949 64.8974 41.2949 65.2703C41.2949 65.8536 41.1183 66.3636 40.7675 66.7957C40.4143 67.2233 39.8346 67.5462 39.0353 67.7716V67.8007C39.4222 67.8739 39.7451 67.9877 39.9984 68.1492C40.2528 68.3049 40.4585 68.4861 40.6199 68.6976C40.7803 68.9055 40.8964 69.1344 40.9708 69.3795C41.044 69.6258 41.0928 69.8744 41.1183 70.1254C41.1323 70.281 41.1462 70.4692 41.1578 70.6818C41.1729 70.8945 41.1973 71.1117 41.2287 71.3371C41.2659 71.5555 41.3158 71.7681 41.3902 71.9702C41.4645 72.1666 41.5749 72.3362 41.7201 72.4768H38.5764C38.4811 72.3211 38.4114 72.1445 38.365 71.9551C38.3162 71.7623 38.279 71.5636 38.243 71.358C38.2104 71.15 38.1849 70.9316 38.164 70.7155C38.1454 70.496 38.114 70.2915 38.0734 70.0963C37.9653 69.5758 37.7411 69.1948 37.3891 68.9531C37.0429 68.7115 36.4713 68.5895 35.6836 68.5895H32.5283V72.4768H29.3868V62.5193Z" fill="#231F20"/>
<path d="M47.0015 62.5181H43.8589V72.4744H47.0015V62.5181Z" fill="#231F20"/>
<path d="M59.3139 65.8744C59.2593 65.6235 59.1397 65.3958 58.9515 65.1855C58.7656 64.9729 58.5321 64.7893 58.2509 64.6301C57.9709 64.4756 57.6538 64.3513 57.2994 64.2642C56.9451 64.1759 56.5745 64.1294 56.1853 64.1294C55.4789 64.1294 54.8771 64.227 54.3834 64.4187C53.8885 64.6092 53.4877 64.8625 53.1798 65.1855C52.8719 65.5026 52.65 65.8686 52.5071 66.2775C52.3689 66.6865 52.3004 67.1094 52.3004 67.5439C52.3004 67.9621 52.3689 68.3675 52.5071 68.7649C52.65 69.161 52.8719 69.5154 53.1798 69.8279C53.4877 70.1427 53.8885 70.3983 54.3834 70.5877C54.8771 70.7782 55.4789 70.8758 56.1853 70.8758C57.1461 70.8758 57.8977 70.6678 58.4414 70.2589C58.9793 69.8523 59.3139 69.3132 59.4347 68.6464H62.4797C62.4007 69.2668 62.1928 69.8302 61.8594 70.3321C61.5236 70.8328 61.0833 71.265 60.5338 71.6158C59.9878 71.9679 59.3453 72.2385 58.6099 72.4302C57.878 72.6208 57.0671 72.7137 56.1853 72.7137C55.0781 72.7137 54.0895 72.5801 53.2205 72.3106C52.355 72.041 51.6196 71.6762 51.0166 71.2092C50.4171 70.7445 49.9582 70.195 49.6353 69.5653C49.3158 68.9322 49.1566 68.2583 49.1566 67.5427C49.1566 66.8108 49.3158 66.1195 49.6353 65.4806C49.9582 64.8381 50.4171 64.2816 51.0166 63.8065C51.6196 63.3336 52.355 62.9642 53.2205 62.6923C54.0895 62.424 55.0781 62.2869 56.1853 62.2869C56.9614 62.2869 57.7002 62.367 58.4112 62.5239C59.1176 62.6842 59.7508 62.9131 60.3038 63.2174C60.8591 63.5183 61.3168 63.8913 61.677 64.3385C62.0371 64.7858 62.2648 65.297 62.3601 65.8732H59.3139" fill="#231F20"/>
<path d="M68.2374 68.6313H71.9458L70.1404 64.9695H70.1009L68.2374 68.6313ZM68.5371 62.5193H71.7622L77.1156 72.4744H73.8476L72.766 70.2601H67.416L66.2926 72.4744H63.1071L68.5371 62.5193Z" fill="#231F20"/>
<path d="M76.2385 33.1068C74.2426 29.187 69.4445 27.629 65.5247 29.6238C65.2157 29.7806 64.9229 29.9584 64.6418 30.1466L43.6196 44.6861H69.1436C70.3576 44.6861 71.6007 44.4096 72.7567 43.8205C76.6753 41.82 78.2356 37.0265 76.2385 33.1068Z" fill="#0CB14B"/>
<path d="M55.8227 16.5924L44.8022 41.9421L67.5171 26.2269C68.0062 25.8876 68.4651 25.4833 68.8821 25.0256C71.7924 21.7936 71.5298 16.8166 68.2989 13.9087C65.0704 10.9961 60.0911 11.2599 57.182 14.4907C56.6046 15.1343 56.1538 15.8442 55.8227 16.5924Z" fill="#0089D0"/>
<path d="M55.7693 12.855C56.0702 12.1463 56.2724 11.3831 56.356 10.578C56.8173 6.20276 53.6398 2.28296 49.2658 1.8229C44.8906 1.36401 40.9708 4.53911 40.5119 8.91432C40.4666 9.35114 40.4538 9.7868 40.4805 10.2167H40.4724C40.4724 10.3491 40.5305 10.4107 40.6792 10.4107C40.8256 10.4107 42.5938 10.4107 42.7948 10.4107C43.2269 10.4107 43.8729 10.5385 43.8729 10.8789C43.8729 11.1391 42.7239 11.3831 42.0152 12.065C41.2682 12.7818 40.929 14.0633 41.1079 15.2959V15.2889L44.6466 39.1237L55.7693 12.855Z" fill="#645FAA"/>
<path d="M10.2583 44.6861H35.7788L14.7544 30.1466C14.4767 29.9584 14.1816 29.7806 13.8749 29.6238C9.95279 27.629 5.1547 29.187 3.16111 33.1068C1.16288 37.0265 2.72313 41.82 6.64176 43.8205C7.79888 44.4096 9.04313 44.6861 10.2583 44.6861Z" fill="#FDB913"/>
<path d="M23.5757 16.5923L34.595 41.9408L11.8813 26.2256C11.3922 25.8864 10.9333 25.4821 10.5186 25.0244C7.60836 21.7924 7.86976 16.8154 11.0995 13.9075C14.3315 10.9949 19.3062 11.2586 22.2176 14.4895C22.795 15.1343 23.2492 15.8441 23.5757 16.5923Z" fill="#F37021"/>
<path d="M38.9179 10.2167L34.7495 39.1237L23.6279 12.855C23.3282 12.1463 23.1284 11.3831 23.0436 10.578C22.5835 6.20276 25.7598 2.28296 30.1326 1.8229C34.5079 1.36401 38.4288 4.53911 38.8854 8.91432C38.933 9.35114 38.9423 9.7868 38.9179 10.2167Z" fill="#C8234A"/>
</svg>
